<?xml version="1.0" encoding="UTF-8"?> <svg xmlns="http://www.w3.org/2000/svg" viewBox="0 0 15.69 15.7"><defs><style>.cls-1{fill:#e62227;}</style></defs><g id="Layer_2" data-name="Layer 2"><g id="Layer_1-2" data-name="Layer 1"><path class="cls-1" d="M0,3.4c0-.23.07-.47.12-.7a1.86,1.86,0,0,1,.5-.87C1.08,1.38,1.54.93,2,.47a1.57,1.57,0,0,1,2.24,0L6.32,2.56a1.48,1.48,0,0,1,0,2.16A1.62,1.62,0,0,1,5.88,5a1.55,1.55,0,0,0-1,.86,1.25,1.25,0,0,0-.06.85,5.15,5.15,0,0,0,1.3,2.22,6.84,6.84,0,0,0,2.11,1.63,2,2,0,0,0,1.17.27A1.44,1.44,0,0,0,10.59,10a1.54,1.54,0,0,0,.08-.19A1.46,1.46,0,0,1,13,9.24c.39.34.74.72,1.1,1.09s.87.84,1.27,1.29a1.5,1.5,0,0,1,.05,1.83,2.78,2.78,0,0,1-.26.32c-.42.42-.84.82-1.25,1.25a2.11,2.11,0,0,1-1.31.65.15.15,0,0,0-.07,0H11.8c-.28-.06-.56-.1-.83-.17a11.23,11.23,0,0,1-3.18-1.47,20.92,20.92,0,0,1-3.31-2.69A18.59,18.59,0,0,1,.87,6.53,8.29,8.29,0,0,1,.11,4.37c0-.26-.07-.52-.11-.78Z"></path></g></g></svg> 