<?xml version="1.0" encoding="UTF-8"?> <svg xmlns="http://www.w3.org/2000/svg" viewBox="0 0 13.87 19.02"><defs><style>.cls-1{fill:#e62227;}</style></defs><g id="Layer_2" data-name="Layer 2"><g id="Layer_1-2" data-name="Layer 1"><path class="cls-1" d="M7.38,0l.71.11A6.92,6.92,0,0,1,13.7,5.44a6.7,6.7,0,0,1-.93,5.21C11,13.35,9.21,16,7.43,18.72a.56.56,0,0,1-1,0L1.47,11.22A8.68,8.68,0,0,1,.33,9,6.91,6.91,0,0,1,5.41.19c.34-.07.69-.1,1-.15l.22,0ZM6.93,2.28a4.65,4.65,0,1,0,4.65,4.43A4.65,4.65,0,0,0,6.93,2.28Z"></path></g></g></svg> 